<svg width="16" height="16" viewBox="0 0 16 16" version="1.1" xmlns="http://www.w3.org/2000/svg" xmlns:xlink="http://www.w3.org/1999/xlink">
<title>field-type-date</title>
<desc>Created using Figma</desc>
<g id="Canvas" transform="translate(-270 1)">
<g id="field-type-date">
<g id="icon">
<use xlink:href="#path0_fill" transform="translate(270 -0.999908)"/>
</g>
</g>
</g>
<defs>
<path id="path0_fill" fill-rule="evenodd" d="M 3.5 0C 3.77614 0 4 0.223858 4 0.5L 4 1L 11 1L 11 0.5C 11 0.223858 11.2239 0 11.5 0C 11.7761 0 12 0.223858 12 0.5L 12 1L 12.5 1C 13.8807 1 15 2.11929 15 3.5L 15 13.5C 15 14.8807 13.8807 16 12.5 16L 2.5 16C 1.11929 16 0 14.8807 0 13.5L 0 3.5C 0 2.11929 1.11929 1 2.5 1L 3 1L 3 0.5C 3 0.223858 3.22386 0 3.5 0ZM 3 2L 2.5 2C 1.67157 2 1 2.67157 1 3.5L 1 13.5C 1 14.3284 1.67157 15 2.5 15L 12.5 15C 13.3284 15 14 14.3284 14 13.5L 14 3.5C 14 2.67157 13.3284 2 12.5 2L 12 2L 12 2.5C 12 2.77614 11.7761 3 11.5 3C 11.2239 3 11 2.77614 11 2.5L 11 2L 4 2L 4 2.5C 4 2.77614 3.77614 3 3.5 3C 3.22386 3 3 2.77614 3 2.5L 3 2ZM 4 5.5C 4 5.22386 4.22386 5 4.5 5L 7.5 5C 7.68939 5 7.86252 5.107 7.94721 5.27639C 8.03191 5.44579 8.01363 5.64849 7.9 5.8L 7.5 5.5L 7.9 5.8L 7.89997 5.80004L 7.89984 5.80021L 7.89928 5.80097L 7.89694 5.80408L 7.88757 5.8166L 7.85101 5.86556C 7.81893 5.90857 7.77254 5.97091 7.71428 6.04957C 7.59747 6.20726 7.4347 6.42816 7.24812 6.68471C 7.0218 6.99589 6.76281 7.35621 6.51144 7.71547C 6.78963 7.78035 7.04964 7.88529 7.27499 8.04626C 7.76278 8.39468 8 8.93921 8 9.625C 8 10.9511 7.09568 12 6 12C 5.10438 12 4.44507 11.6492 4.06794 11.0016C 3.92896 10.763 4.00974 10.4569 4.24836 10.3179C 4.48698 10.179 4.79309 10.2597 4.93206 10.4984C 5.09975 10.7863 5.39562 11 6 11C 6.40432 11 7 10.5489 7 9.625C 7 9.18579 6.86222 8.98032 6.69376 8.85999C 6.49168 8.71565 6.14913 8.625 5.625 8.625C 5.4406 8.625 5.27117 8.52351 5.18416 8.36093C 5.09715 8.19835 5.10669 8.00108 5.20897 7.84765C 5.5885 7.27848 6.06313 6.61389 6.43938 6.09654C 6.4632 6.06378 6.48666 6.03158 6.50969 6L 4.5 6C 4.22386 6 4 5.77614 4 5.5ZM 10.751 5.06754C 10.9051 5.15701 11 5.32176 11 5.5L 11 11.5C 11 11.7761 10.7761 12 10.5 12C 10.2239 12 10 11.7761 10 11.5L 10 6.36159L 9.24807 6.79126C 9.00831 6.92827 8.70288 6.84497 8.56588 6.60521C 8.42887 6.36545 8.51217 6.06003 8.75193 5.92302L 10.2519 5.06588C 10.4067 4.97745 10.5968 4.97808 10.751 5.06754Z"/>
</defs>
</svg>
