<svg width="16" height="16" viewBox="0 0 16 16" version="1.1" xmlns="http://www.w3.org/2000/svg" xmlns:xlink="http://www.w3.org/1999/xlink">
<title>field-type-number</title>
<desc>Created using Figma</desc>
<g id="Canvas" transform="translate(-30 0)">
<g id="field-type-number">
<g id="icon">
<use xlink:href="#path0_fill" transform="translate(30.0001 4.00009)"/>
</g>
</g>
</g>
<defs>
<path id="path0_fill" fill-rule="evenodd" d="M 2.72364 0.0527893C 2.89303 0.137485 3.00003 0.310617 3.00003 0.500003L 3.00003 8.5C 3.00003 8.77614 2.77617 9 2.50003 9C 2.22389 9 2.00003 8.77614 2.00003 8.5L 2.00003 1.5L 0.800029 2.4C 0.579116 2.56569 0.265715 2.52092 0.100029 2.3C -0.065656 2.07909 -0.0208845 1.76569 0.200029 1.6L 2.20003 0.100003C 2.35154 -0.0136288 2.55424 -0.0319067 2.72364 0.0527893ZM 5.49235 1.22351C 5.27943 1.3456 5.20078 1.46961 5.12106 1.68248C 5.02028 1.93958 4.73017 2.0663 4.47307 1.96551C 4.21598 1.86473 4.08926 1.57462 4.19004 1.31752C 4.31917 0.997633 4.58958 0.621647 4.9601 0.376923C 5.35223 0.130395 5.86055 2.88044e-06 6.50003 2.88044e-06C 7.62139 2.88044e-06 8.2934 0.38191 8.65851 0.899161C 8.9766 1.39041 9.00003 1.91667 9.00003 2C 9.00003 3.42944 8.20256 4.72224 7.34187 5.82358C 6.97175 6.29653 6.58037 6.74663 6.20908 7.17362C 5.96053 7.45946 5.72098 7.73494 5.50284 8L 8.50003 8C 8.77617 8 9.00003 8.22386 9.00003 8.5C 9.00003 8.77614 8.77617 9 8.50003 9L 4.50003 9C 4.31563 9 4.1462 8.89851 4.05919 8.73593C 3.97218 8.57335 3.98172 8.37608 4.084 8.22265C 4.45045 7.67555 4.94885 7.10143 5.4658 6.50595C 5.83268 6.08333 6.2089 5.64994 6.55394 5.20781C 7.39467 4.13201 8.00003 3.07056 8.00003 2C 8.00003 1.99249 8.00022 1.98383 8.00043 1.97414C 8.00258 1.87637 8.00705 1.67335 7.84155 1.47584C 7.70666 1.28476 7.37867 1 6.50003 1C 5.99316 1 5.68367 1.10323 5.49235 1.22351ZM 10 0.500003C 10 0.22386 10.2239 2.88044e-06 10.5 2.88044e-06L 14.5 2.88044e-06C 14.6894 2.88044e-06 14.8625 0.107004 14.9472 0.276396C 15.0319 0.445788 15.0137 0.648494 14.9 0.800003L 14.899 0.801332L 14.8959 0.805531L 14.8833 0.822309L 14.8344 0.887782C 14.7916 0.945196 14.7296 1.02853 14.6518 1.13355C 14.4959 1.34398 14.2785 1.6391 14.0294 1.98159C 13.6836 2.45711 13.2798 3.01961 12.8996 3.56765C 13.3477 3.64232 13.7602 3.78565 14.1031 4.03064C 14.7003 4.45718 15 5.12671 15 6C 15 7.70106 13.8457 9.00001 12.5 9.00001C 11.3544 9 10.5359 8.5551 10.068 7.75164C 9.92899 7.51302 10.0098 7.20691 10.2484 7.06794C 10.487 6.92896 10.7931 7.00974 10.9321 7.24837C 11.1906 7.6922 11.6456 8 12.5 8.00001C 13.1544 8.00001 14 7.29895 14 6C 14 5.3733 13.7997 5.04282 13.5219 4.84437C 13.2105 4.6219 12.7117 4.5 12 4.5C 11.8156 4.5 11.6462 4.39851 11.5592 4.23593C 11.4722 4.07335 11.4817 3.87608 11.584 3.72265C 12.0885 2.96598 12.7194 2.08265 13.2207 1.39342C 13.3222 1.25378 13.4187 1.12174 13.508 1L 10.5 1C 10.2239 1 10 0.776145 10 0.500003Z"/>
</defs>
</svg>
