<svg width="16" height="16" viewBox="0 0 16 16" version="1.1" xmlns="http://www.w3.org/2000/svg" xmlns:xlink="http://www.w3.org/1999/xlink">
<title>field-type-id</title>
<desc>Created using Figma</desc>
<g id="Canvas" transform="translate(-120 1)">
<g id="field-type-id">
<g id="icon">
<use xlink:href="#path0_fill" transform="translate(121 -1)"/>
</g>
</g>
</g>
<defs>
<path id="path0_fill" fill-rule="evenodd" d="M 6.09806 0.00980607C 6.36884 0.063962 6.54445 0.327375 6.49029 0.598154L 5.6099 5.0001L 9.5901 5.0001L 10.5097 0.402038C 10.5639 0.131258 10.8273 -0.0443499 11.0981 0.00980607C 11.3688 0.063962 11.5444 0.327375 11.4903 0.598154L 10.6099 5.0001L 13.5 5.0001C 13.7761 5.0001 14 5.22395 14 5.5001C 14 5.77624 13.7761 6.0001 13.5 6.0001L 10.4099 6.0001L 9.6099 10.0001L 12.5 10.0001C 12.7761 10.0001 13 10.224 13 10.5001C 13 10.7762 12.7761 11.0001 12.5 11.0001L 9.4099 11.0001L 8.49029 15.5982C 8.43613 15.8689 8.17272 16.0445 7.90194 15.9904C 7.63116 15.9362 7.45555 15.6728 7.50971 15.402L 8.3901 11.0001L 4.4099 11.0001L 3.49029 15.5982C 3.43613 15.8689 3.17272 16.0445 2.90194 15.9904C 2.63116 15.9362 2.45555 15.6728 2.50971 15.402L 3.3901 11.0001L 0.5 11.0001C 0.223858 11.0001 0 10.7762 0 10.5001C 0 10.224 0.223858 10.0001 0.5 10.0001L 3.5901 10.0001L 4.3901 6.0001L 1.5 6.0001C 1.22386 6.0001 1 5.77624 1 5.5001C 1 5.22395 1.22386 5.0001 1.5 5.0001L 4.5901 5.0001L 5.50971 0.402038C 5.56387 0.131258 5.82728 -0.0443499 6.09806 0.00980607ZM 5.4099 6.0001L 4.6099 10.0001L 8.5901 10.0001L 9.3901 6.0001L 5.4099 6.0001Z"/>
</defs>
</svg>
