<svg width="16" height="16" viewBox="0 0 16 16" version="1.1" xmlns="http://www.w3.org/2000/svg" xmlns:xlink="http://www.w3.org/1999/xlink">
<title>field-type-text</title>
<desc>Created using Figma</desc>
<g id="Canvas">
<g id="field-type-text">
<g id="icon">
<use xlink:href="#path0_fill" transform="translate(0 3.00009)"/>
</g>
</g>
</g>
<defs>
<path id="path0_fill" fill-rule="evenodd" d="M 7.50014 0C 7.77628 0 8.00014 0.223858 8.00014 0.5L 8.00014 3.34053C 8.33625 3.10726 8.70136 3 9.00014 3C 9.00415 3 9.00826 3 9.01247 3C 9.27672 2.99986 9.93455 2.99953 10.513 3.49537C 11.1078 4.00513 11.5001 4.92887 11.5001 6.5C 11.5001 9.16277 9.78946 10 9.00014 10C 8.53806 10 8.15254 9.88299 7.8452 9.66672C 7.5671 9.46157 7.34385 9.14825 7.22806 8.88446C 7.01035 8.35053 7.00014 7.75 7.00014 7.5L 7.00014 5.5L 7.00014 0.5C 7.00014 0.223858 7.22399 0 7.50014 0ZM 8.00014 5.5L 8.00014 7.5C 8.00014 7.51394 8.0001 7.52834 8.00007 7.54317C 7.99952 7.79436 7.99869 8.16848 8.14721 8.49054C 8.21892 8.66425 8.27692 8.75718 8.4207 8.84891C 8.53523 8.92951 8.71221 9 9.00014 9C 9.21081 9 10.5001 8.63723 10.5001 6.5C 10.5001 5.07113 10.1425 4.49487 9.86224 4.25463C 9.57494 4.00837 9.24455 4 9.00014 4C 8.77628 4 8.00014 4.27614 8.00014 5.5ZM 3.50014 1C 3.70856 1 3.89512 1.12929 3.9683 1.32444L 5.8433 6.32444L 6.9683 9.32444C 7.06526 9.583 6.93426 9.8712 6.6757 9.96816C 6.41714 10.0651 6.12893 9.93412 6.03197 9.67556L 5.02864 7L 1.97164 7L 0.9683 9.67556C 0.87134 9.93412 0.583134 10.0651 0.324574 9.96816C 0.0660136 9.8712 -0.0649891 9.583 0.0319709 9.32444L 1.15697 6.32444L 3.03197 1.32444C 3.10515 1.12929 3.29171 1 3.50014 1ZM 2.34664 6L 4.65364 6L 3.50014 2.924L 2.34664 6ZM 14.3433 2.99997C 14.3541 2.99999 14.3648 3 14.3751 3C 14.8539 3.01089 15.2725 3.18696 15.4962 3.33397C 15.6181 3.41668 15.726 3.51121 15.7834 3.56832C 15.816 3.60118 15.8465 3.63488 15.8622 3.65312C 15.8717 3.66432 15.8815 3.67623 15.8862 3.68204L 15.8944 3.69248L 15.8976 3.69662L 15.8989 3.6984L 15.8996 3.69923C 16.0652 3.92014 16.021 4.23431 15.8001 4.4C 15.5812 4.56419 15.2715 4.52171 15.1047 4.30594L 15.1029 4.30391C 15.0952 4.29481 15.0905 4.28945 15.0763 4.27543C 15.0399 4.23879 15.0071 4.20832 14.9415 4.16603C 14.7903 4.06304 14.6463 3.98911 14.3751 4C 13.9815 4 13.7214 4.01707 13.5099 4.22855C 13.2816 4.45693 13.0001 5.03207 13.0001 6.5C 13.0001 7.62751 13.2646 8.24885 13.5405 8.57991C 13.8114 8.90495 14.1336 9 14.3751 9C 14.6463 9.01089 14.7903 8.93696 14.9415 8.83397C 15.0071 8.79168 15.0399 8.76121 15.0763 8.72457C 15.0905 8.71055 15.0952 8.70519 15.1029 8.69609L 15.1047 8.69406C 15.2715 8.47829 15.5812 8.43581 15.8001 8.6C 16.021 8.76569 16.0658 9.07909 15.9001 9.3L 15.8989 9.3016L 15.8976 9.30338L 15.8944 9.30752L 15.8862 9.31796C 15.8815 9.32377 15.8717 9.33568 15.8622 9.34688C 15.8465 9.36512 15.816 9.39882 15.7834 9.43168C 15.726 9.48879 15.6181 9.58332 15.4962 9.66603C 15.2725 9.81304 14.8539 9.98911 14.3751 10C 13.8666 10 13.2514 9.79505 12.7723 9.22009C 12.2982 8.65115 12.0001 7.77249 12.0001 6.5C 12.0001 4.96793 12.2812 4.04307 12.8028 3.52145C 13.3257 2.99859 13.9795 2.99948 14.3433 2.99997Z"/>
</defs>
</svg>
